<svg width="772" height="485" viewBox="0 0 772 485" fill="none" xmlns="http://www.w3.org/2000/svg">
<path d="M373.636 140.459C375.668 140.231 377.463 140.026 379.519 139.789C381.433 150.002 378.023 158.63 372.218 165.557C362.823 176.762 352.215 186.943 342.119 197.565C337.095 202.852 332.078 208.148 326.77 213.742C332.968 211.772 339.04 209.928 345.057 207.911C364.808 201.292 384.291 193.924 401.058 181.238C407.374 176.462 413.091 170.553 417.966 164.288C426.527 153.296 427.582 140.593 423.51 127.497C422.668 124.794 420.73 122.43 418.683 118.837C422.494 115.614 426.275 112.43 429.787 109.468C426.928 105.709 424.377 102.352 420.919 97.7974C420.14 97.7974 417.557 97.0173 415.958 97.9393C410.626 101.012 405.279 104.275 400.656 108.293C397.451 111.083 395.419 115.228 392.875 118.774C390.576 121.973 388.449 127.158 384.047 125.243C380.716 123.793 377.385 119.333 376.542 115.645C371.699 94.543 363.122 75.4973 344.868 63.0865C333.74 55.5218 321.124 49.9349 308.72 44.5057C292.757 37.5162 275.998 32.3076 260.263 24.8847C251.774 20.8817 244.591 14.0105 237.078 8.10842C234.771 6.28816 233.306 3.38836 232.4 0C233.377 0.441274 234.535 0.677671 235.298 1.35534C253.42 17.3515 275.053 26.177 297.939 32.7331C313.335 37.1459 328.881 41.4404 343.694 47.437C367.233 56.9559 377.235 76.6714 380.015 100.8C380.763 107.308 381.259 113.841 382.063 122.446C385.528 120.074 387.961 119.018 389.528 117.214C393.411 112.738 396.632 107.671 400.633 103.313C403.665 100.02 407.216 96.9779 411.044 94.6849C417.643 90.7213 423.51 92.2264 427.369 98.2702C428.676 100.319 429.346 102.825 430.842 104.692C432.307 106.528 434.449 107.836 437.544 110.421C433.079 113.179 429.236 115.543 424.92 118.206C425.952 120.326 426.503 122.154 427.582 123.573C440.293 140.246 436.292 157.874 426.243 169.694C412.296 186.1 393.498 195.146 374.014 202.49C357.728 208.628 340.772 212.97 324.203 218.399C321.667 219.227 318.729 221.118 317.54 223.348C312.532 232.725 308.121 242.425 303.475 251.999C302.223 254.576 300.9 257.121 298.632 259.32C295.088 246.712 301.664 237.154 309.366 226.263C296.568 231.464 286.787 238.075 279.274 247.705C275.754 252.228 273.029 257.365 269.816 262.141C268.532 264.048 266.91 265.726 264.705 268.405C262.319 265.553 260.649 263.551 259.027 261.613C267.382 242.669 281.865 230.519 300.002 224.026C314.311 218.896 325.282 210.74 334.645 199.377C342.08 190.347 350.081 181.781 357.374 172.641C364.926 163.201 371.565 153.13 373.636 140.459Z" fill="white"/>
<path d="M136.014 405.074C139.747 407.659 145.496 403.49 147.276 410.976C133.494 410.976 119.712 410.976 105.049 410.976C105.001 410.535 104.828 409.006 104.592 406.894C108.348 406.437 111.554 406.051 115.294 405.594C115.294 376.391 115.294 347.338 115.294 317.875C112.64 317.875 110.459 318.033 108.301 317.828C106.553 317.662 104.844 317.056 103.119 316.646C103.135 315.992 103.151 315.338 103.166 314.684C105.19 314.061 107.222 312.887 109.238 312.903C127.698 313.068 146.197 312.832 164.609 313.951C179.486 314.857 188.85 329.175 183.746 342.35C180.187 351.538 171.808 355.51 162.885 358.228C161.767 358.567 160.664 358.945 158.616 359.615C160.814 360.892 162.16 361.971 163.696 362.523C177.887 367.605 181.502 378.881 181.494 392.285C181.494 396.69 182.077 401.103 182.431 406.02C186.936 406.02 190.338 406.02 193.74 406.02C194.063 406.516 194.386 407.013 194.709 407.501C193.394 408.841 192.142 411.252 190.748 411.339C185.566 411.662 180.108 412.111 175.17 410.866C165.413 408.407 162.105 403.396 161.286 393.207C160.837 387.644 159.892 382.128 159.388 376.573C158.341 364.989 145.725 359.063 136.022 362.176C136.014 376.328 136.014 390.701 136.014 405.074ZM135.707 357.125C141.653 356.613 146.922 356.763 151.836 355.518C155.002 354.714 158.727 352.492 160.325 349.789C165.862 340.435 164.405 330.696 159.64 321.429C158.821 319.829 156.482 318.151 154.75 318.041C148.615 317.631 142.433 317.883 135.707 317.883C135.707 330.798 135.707 343.256 135.707 357.125Z" fill="white"/>
<path d="M576.188 407.556C580.04 407.052 583.891 406.54 587.781 406.028C587.781 376.659 587.781 348.094 587.781 318.821C583.757 318.584 580.047 318.364 575.897 318.119C575.897 316.354 575.897 314.81 575.897 312.856C578.055 312.729 579.756 312.556 581.457 312.548C595.247 312.517 609.044 312.556 622.834 312.501C658.572 312.367 673.362 340.616 669.857 370.072C668.416 382.151 664.754 393.64 654.54 400.937C648.373 405.342 640.782 409.573 633.497 410.243C615.47 411.89 597.255 411.488 579.11 411.709C577.779 411.725 576.433 410.117 575.086 409.258C575.456 408.699 575.826 408.131 576.188 407.556ZM609.47 407.162C615.242 406.752 620.771 406.548 626.26 405.941C637.072 404.735 643.609 399.408 645.586 388.66C647.318 379.291 648.515 369.654 648.366 360.167C648.224 351.034 646.515 341.838 644.625 332.847C643.207 326.102 638.246 321.216 631.607 319.806C624.748 318.34 617.542 318.513 609.477 317.899C609.469 347.976 609.47 376.959 609.47 407.162Z" fill="white"/>
<path d="M766.597 313.139C766.889 322.753 770.866 332.083 767.164 341.302C766.4 341.46 765.629 341.617 764.865 341.775C763.77 340.183 762.384 338.718 761.62 336.976C756.076 324.439 747.413 316.922 732.82 318.301C730.457 318.521 728.016 317.875 724.204 317.489C721.606 330.948 723.889 344.399 723.685 357.59C732.355 361.073 737.199 355.155 741.105 346.865C742.042 344.872 743.751 343.249 745.106 341.452C745.964 341.736 746.822 342.011 747.673 342.295C747.673 355.226 747.736 368.165 747.539 381.096C747.523 381.97 745.554 382.814 743.94 384.114C739.931 374.406 737.183 364.327 723.685 364.69C723.685 378.724 723.685 392.537 723.685 406.571C737.577 407.856 750.555 407.564 759.423 395.272C762.108 391.552 763.51 386.887 765.384 382.609C766.495 380.079 767.432 377.55 771.992 379.929C771.535 389.63 771.063 399.763 770.543 410.827C743.759 410.827 717.463 410.827 691.152 410.827C691.207 406.619 691.207 406.619 702.492 406.634C702.492 377.573 702.492 348.52 702.492 318.908C698.563 318.663 695.152 318.451 691.136 318.19C690.734 316.843 690.301 315.393 689.624 313.132C715.565 313.139 740.561 313.139 766.597 313.139Z" fill="white"/>
<path d="M12.7895 317.867C7.67842 317.418 2.86661 320.901 0 314.361C1.58294 313.715 2.91386 312.682 4.22904 312.706C22.5234 312.958 40.8728 312.556 59.0805 313.967C73.7522 315.101 82.0134 323.691 83.9113 336.606C85.1399 344.951 81.6039 351.483 75.6029 356.959C67.1842 364.65 56.5998 365.596 46.0233 366.581C41.9202 366.959 37.8093 367.298 33.7535 367.653C33.7535 380.788 33.7535 393.191 33.7535 405.5C38.8095 406.24 43.1724 406.879 47.5353 407.509C47.5747 408.195 47.6219 408.88 47.6613 409.566C46.4249 410.196 45.2042 411.354 43.9599 411.37C30.5719 411.536 17.176 411.536 3.78802 411.512C2.97686 411.512 2.17358 410.976 0.362264 410.338C2.66973 403.348 9.43461 408.029 12.7895 405.24C12.7895 376.171 12.7895 347.078 12.7895 317.867ZM33.5567 363.736C40.7389 362.507 47.1888 362.357 52.7724 360.088C56.1981 358.693 60.0492 354.328 60.6398 350.782C61.9077 343.201 61.5218 335.266 61.0808 327.52C60.9469 325.156 58.9702 321.949 56.9148 320.814C49.5908 316.772 41.5816 318.112 33.5567 318.403C33.5567 333.525 33.5567 347.858 33.5567 363.736Z" fill="white"/>
<path d="M440.671 366.628C429.322 362.223 423.833 354.123 422.613 342.752C421.872 335.857 423.581 329.624 427.314 323.903C435.875 310.775 457.532 307.119 471.904 315.803C474.881 314.684 478.039 313.502 481.087 312.359C484.536 317.844 484.867 337.134 481.181 341.318C479.669 339.813 478.023 338.481 476.748 336.858C472.881 331.949 469.416 326.701 465.32 322.004C460.076 315.992 451.602 314.274 444.963 317.489C436.828 321.429 433.126 327.402 434.378 335.81C435.158 341.026 438.214 344.62 442.844 346.022C448.459 347.724 454.374 348.709 460.225 349.261C482.938 351.373 495.562 369.41 488.293 391.087C485.064 400.709 477.882 407.241 467.699 410.945C458.918 414.136 450.751 413.711 442.293 411.197C440.025 410.519 437.93 409.235 434.504 407.651C432.118 408.975 428.755 410.85 424.038 413.466C420.998 403.199 423.046 393.239 421.581 383.475C423.518 382.861 424.778 382.467 426.101 382.049C431.157 388.81 436.418 395.098 440.805 401.946C445.002 408.502 461.942 409.739 468.691 404.846C477.645 398.345 481.079 385.737 474.645 377.747C471.605 373.972 466.069 371.529 461.194 370.087C454.602 368.117 447.538 367.7 440.671 366.628Z" fill="white"/>
<path d="M367.659 361.167C375.282 346.33 382.149 332.973 388.906 319.822C384.685 315.732 378.117 321.516 374.991 315.527C379.519 311.004 405.303 311.571 408.075 316.189C405.24 320.499 401.357 317.781 396.616 317.536C394.049 322.059 391.127 327.047 388.355 332.13C384.866 338.528 381.929 345.282 377.983 351.381C372.156 360.372 369.643 369.835 370.462 380.552C371.085 388.684 370.588 396.903 370.588 404.932C375.03 407.667 380.842 403.616 384.394 408.392C381 411.93 343.119 413.009 337.607 410.102C338.087 407.091 338.087 407.092 349.577 405.484C349.821 405.24 350.262 405.011 350.27 404.751C350.9 389.11 354.208 373.31 344.655 358.709C337.252 347.385 330.857 335.408 323.951 323.754C322.809 321.823 321.32 320.097 320.123 318.45C317.005 318.45 314.248 318.45 310.917 318.45C310.728 316.945 310.547 315.559 310.279 313.47C325.368 313.47 339.843 313.47 354.31 313.47C354.389 316.37 354.389 316.37 344.175 319.53C351.774 333.02 359.319 346.393 367.659 361.167Z" fill="white"/>
<path d="M239.629 382.585C236.849 390.378 234.085 398.124 231.14 406.39C236.274 406.934 240.527 407.383 244.772 407.84C244.78 408.659 244.788 409.471 244.796 410.291C236.818 413.797 227.934 410.377 219.689 412.103C217.681 412.521 215.24 410.842 213.003 410.133C213.105 409.353 213.208 408.565 213.31 407.785C216.972 407.375 220.634 406.973 225.178 406.469C226.43 402.671 227.698 398.589 229.132 394.562C238.401 368.551 247.639 342.531 257.136 316.599C257.876 314.589 260.475 313.258 263.208 310.665C275.446 344.013 286.991 375.477 298.458 406.713C302.64 406.926 305.908 407.099 309.168 407.265C309.444 407.816 309.719 408.376 309.995 408.927C308.538 409.794 307.097 411.394 305.624 411.417C293.599 411.622 281.565 411.575 269.532 411.465C268.169 411.449 266.823 410.614 265.46 410.165C265.437 409.416 265.421 408.675 265.397 407.927C269.146 407.422 272.895 406.918 277.25 406.335C274.604 398.416 271.989 390.599 269.311 382.593C259.491 382.585 250.119 382.585 239.629 382.585ZM267.106 377.337C262.869 365.777 258.94 355.053 255.01 344.336C254.498 344.36 253.986 344.383 253.466 344.407C249.584 355.116 245.709 365.824 241.535 377.337C250.804 377.337 258.388 377.337 267.106 377.337Z" fill="white"/>
<path d="M509.941 410.417C512.651 403.159 518.667 408.273 522.235 405.106C522.235 376.391 522.235 347.157 522.235 317.592C517.99 317.592 514.564 317.592 511.17 317.592C508.965 313.722 511.091 312.383 514.107 312.304C522.416 312.091 530.724 312.249 539.033 312.131C542.655 312.076 546.31 311.303 549.869 311.658C551.759 311.847 553.484 313.754 555.28 314.889C554.996 315.685 554.705 316.48 554.421 317.276C551.137 317.442 547.861 317.599 543.75 317.804C543.75 346.881 543.75 375.966 543.75 405.303C548.168 405.775 552.09 406.193 556.012 406.611C556.075 407.438 556.138 408.273 556.201 409.101C554.681 409.81 553.185 411.094 551.649 411.142C539.442 411.473 527.236 411.599 515.021 411.678C513.588 411.678 512.146 410.984 509.941 410.417Z" fill="white"/>
<path d="M537.245 1.41059C535.174 3.85336 533.229 6.41432 531.016 8.73102C517.502 22.8912 500.247 30.6923 482.315 37.3902C469.911 42.0157 457.413 46.4521 445.309 51.771C420.77 62.5507 404.161 81.1237 394.127 105.827C393.395 107.632 391.93 109.145 390.812 110.791C390.221 110.453 389.638 110.114 389.048 109.775C389.386 108.167 389.607 106.513 390.087 104.945C400.798 70.2573 421.88 45.9793 457.783 35.6172C475.471 30.5111 493.018 24.5617 510.02 17.5329C519.51 13.6087 527.756 6.68224 536.56 1.10327C536.796 1.20571 537.017 1.30815 537.245 1.41059Z" fill="white"/>
<path d="M386.024 457.562C387.205 457.562 389.064 457.562 390.308 457.562C389.954 464.457 389.607 471.218 389.261 477.987C388.859 478.381 388.457 478.783 388.056 479.177C384.331 474.378 380.606 469.579 376.881 464.78C376.054 465.332 375.227 465.883 374.4 466.443C374.731 470.194 375.069 473.945 375.44 478.097C374.117 478.097 372.203 478.097 370.888 478.097C370.888 471.21 370.888 464.717 370.888 457.05C378.251 459.115 380.464 466.585 387.087 470.454C386.701 465.836 386.386 461.975 386.024 457.562Z" fill="white"/>
<path d="M165.248 457.602C166.46 457.602 168.319 457.602 169.697 457.602C169.359 464.512 169.028 471.234 168.65 478.972C163.791 473.685 159.554 469.075 155.325 464.465C154.663 464.835 154.01 465.214 153.348 465.584C153.695 469.619 154.049 473.661 154.427 478.058C153.443 478.058 151.678 478.058 150.237 478.058C150.237 471.368 150.237 464.82 150.237 457.184C157.42 459.02 159.585 466.522 166.374 470.43C165.964 465.742 165.634 461.912 165.248 457.602Z" fill="white"/>
<path d="M485.016 469.217C485.607 472.526 486.064 475.119 486.591 478.089C484.764 478.089 482.331 478.089 480.401 478.089C480.401 471.289 480.401 464.757 480.401 456.672C484.678 457.617 489.702 458.13 494.065 460.092C495.183 460.596 494.23 465.694 494.23 468.689C493.711 468.775 493.191 468.862 492.671 468.949C495.002 471.904 497.325 474.867 500.129 478.428C492.348 479.539 491.954 470.942 485.016 469.217ZM490.159 459.8C488.096 460.147 486.749 460.375 485.008 460.667C485.3 463.039 485.52 464.788 485.812 467.199C487.954 466.553 489.434 466.104 491.269 465.553C490.891 463.559 490.616 462.125 490.159 459.8Z" fill="white"/>
<path d="M691.947 479.185C686.734 474 682.355 469.642 677.984 465.292C677.504 465.466 677.023 465.631 676.543 465.804C676.968 469.839 677.401 473.873 677.866 478.223C676.606 478.223 674.669 478.223 673.346 478.223C673.346 471.218 673.346 464.622 673.346 457.271C680.874 458.925 682.985 466.632 689.868 470.367C689.372 465.678 688.962 461.801 688.521 457.672C689.616 457.672 691.593 457.672 693.002 457.672C692.672 464.504 692.341 471.249 691.947 479.185Z" fill="white"/>
<path d="M640.853 478.854C634.395 478.964 630.032 474.725 629.922 468.224C629.812 461.668 634.009 457.231 640.38 457.16C646.799 457.081 651.335 461.408 651.469 467.743C651.611 473.968 647.043 478.743 640.853 478.854ZM647.169 471.565C647.256 464.047 644.019 459.91 639.664 459.91C635.38 459.918 633.962 462.802 633.836 466.411C633.663 471.439 638.041 476.805 642.089 475.867C644.428 475.331 646.216 472.432 647.169 471.565Z" fill="white"/>
<path d="M447.396 478.838C441.111 478.83 436.473 474.157 436.512 467.877C436.551 461.652 441.3 457.074 447.616 457.184C453.767 457.294 458.13 461.652 458.264 467.814C458.39 473.905 453.523 478.846 447.396 478.838ZM450.136 476.245C454.956 473.204 454.743 469.035 453.034 464.701C451.593 461.029 448.443 458.65 444.82 460.257C442.844 461.132 441.056 464.717 440.977 467.136C440.796 472.565 444.049 475.741 450.136 476.245Z" fill="white"/>
<path d="M530.701 455.513C534.536 463.882 537.647 470.674 541.065 478.137C538.883 478.294 536.812 478.452 534.386 478.625C534.386 476.702 534.386 475.268 534.386 472.991C531.488 472.849 528.748 472.723 525.385 472.558C525.511 474.851 525.605 476.419 525.7 478.2C523.904 478.2 522.117 478.2 520.234 478.2C523.589 470.942 526.755 464.055 530.701 455.513Z" fill="white"/>
<path d="M241.795 478.806C235.558 478.751 230.959 474.023 231.061 467.767C231.164 461.581 235.952 457.066 242.244 457.223C248.34 457.373 252.671 461.801 252.71 467.932C252.758 474.055 247.938 478.861 241.795 478.806ZM248.6 470.288C248.584 463.866 245.308 459.784 240.921 459.831C236.668 459.879 235.267 462.542 235.235 466.348C235.188 471.722 238.787 476.3 243.252 476.135C247.56 475.97 248.505 472.849 248.6 470.288Z" fill="white"/>
<path d="M338.945 476.892C342.835 475.71 345.702 474.835 348.482 473.984C347.852 478.814 346.363 479.2 333.629 477.814C333.629 471.131 333.629 464.504 333.629 457.617C337.511 457.617 342.158 457.617 347.174 457.617C347.111 458.894 347.056 459.981 347.009 461.045C344.292 460.549 341.866 460.1 338.819 459.548C338.819 462.314 338.819 464.252 338.819 466.687C341.205 466.474 343.197 466.301 345.654 466.08C345.324 467.286 345.04 468.326 344.678 469.65C342.843 469.477 341.205 469.319 338.937 469.098C338.945 471.447 338.945 473.511 338.945 476.892Z" fill="white"/>
<path d="M107.576 457.602C109.829 457.602 112.026 457.602 113.183 457.602C113.183 462.393 112.742 467.002 113.404 471.447C113.664 473.22 116.499 476.009 117.916 475.867C119.917 475.67 122.996 473.417 123.311 471.628C124.099 467.231 123.571 462.597 123.571 457.72C123.823 457.72 125.642 457.72 126.886 457.72C126.674 461.77 126.453 465.757 126.264 469.737C125.989 475.67 123.012 478.822 117.712 478.751C112.293 478.688 109.285 475.591 109.088 469.808C109.017 467.719 109.238 465.608 109.009 463.543C108.805 461.723 108.167 459.942 107.576 457.602Z" fill="white"/>
<path d="M579.598 459.863C568.116 460.194 565.722 461.187 565.746 466.482C565.769 472.81 569.872 475.402 579.653 474.992C576.236 479.815 572.14 479.445 567.801 477.317C562.848 474.89 560.753 469.768 562.454 464.599C564.265 459.091 569.439 456.152 575.802 457.365C577.181 457.609 578.338 458.996 579.598 459.863Z" fill="white"/>
<path d="M274.509 474.93C277.825 475.158 280.857 475.371 283.889 475.576C284.085 474.811 284.29 474.055 284.487 473.291C281.802 471.258 279.045 469.303 276.446 467.16C273.367 464.63 273.517 461.739 276.187 459.052C278.809 456.42 284.054 456.514 285.92 459.091C286.125 459.375 285.802 460.037 285.716 460.564C282.991 460.431 280.353 460.304 277.722 460.178C277.486 460.825 277.242 461.463 277.006 462.109C279.518 464 282.361 465.592 284.44 467.877C285.865 469.445 287.48 472.605 286.81 473.913C285.723 476.017 282.975 478.026 280.62 478.468C278.675 478.83 276.297 476.868 274.131 475.899C274.123 475.891 274.367 475.3 274.509 474.93Z" fill="white"/>
<path d="M210.334 457.594C210.137 458.957 209.987 460.06 209.83 461.124C207.601 460.659 205.687 460.249 202.624 459.603C202.994 466.262 203.317 472.077 203.655 478.129C202.191 478.129 199.718 478.129 198.04 478.129C198.04 471.912 198.04 466.104 198.04 459.682C195.851 460.163 194.071 460.549 191.882 461.029C191.945 459.903 192 458.855 192.063 457.586C198.245 457.594 204.112 457.594 210.334 457.594Z" fill="white"/>
<path d="M79.2256 457.562C81.1314 457.562 83.1869 457.562 85.9196 457.562C81.029 465.939 88.6759 477.112 79.2256 485.008C79.2256 475.292 79.2256 466.664 79.2256 457.562Z" fill="white"/>
<path d="M602.059 457.586C603.878 457.586 606.059 457.586 607.792 457.586C607.792 464.378 607.792 470.911 607.792 478.223C606.193 478.31 603.972 478.436 602.059 478.546C602.059 471.352 602.059 464.701 602.059 457.586Z" fill="white"/>
</svg>
